<?xml version="1.0" ?><svg width="500px" height="500px" viewBox="0 0 500 500" xmlns="http://www.w3.org/2000/svg"><defs><style>.cls-1{fill:none;}.cls-2{fill:#ff9e9d;}.cls-3{fill:#fff;stroke:#62626a;stroke-miterlimit:10;stroke-width:9px;}.cls-4{fill:#62626a;}</style></defs><title/><g data-name="Layer 2" id="Layer_2"><g data-name="Layer 1" id="Layer_1-2"><rect class="cls-1" height="500" rx="250" ry="250" width="500"/><circle class="cls-2" cx="250" cy="180" r="150"/><path class="cls-3" d="M400,333.23V470H100V333.23a52.75,52.75,0,0,1,42.39-51.72l20.13-4,33.3-6.66a276.76,276.76,0,0,1,108.36,0l36.18,7.23,17.25,3.45A52.75,52.75,0,0,1,400,333.23Z"/><path class="cls-3" d="M304.18,270.83q-12-2.4-24.18-3.7V230H220v37.13q-12.15,1.32-24.18,3.7l-33.3,6.66a54.57,54.57,0,0,0,53.55,44h70.86a54.55,54.55,0,0,0,53.43-43.44Z"/><path class="cls-3" d="M310,130v60a60,60,0,0,1-60,60h0a60,60,0,0,1-60-60V130"/><line class="cls-3" x1="320" x2="180" y1="130" y2="130"/><circle class="cls-4" cx="275" cy="165" r="5"/><circle class="cls-4" cx="225" cy="165" r="5"/><path class="cls-3" d="M270,200h0a20,20,0,0,1-40,0"/><path class="cls-3" d="M330,350v31.42A47.9,47.9,0,0,1,330,440v30"/><path class="cls-3" d="M170,350v31.42A47.9,47.9,0,0,0,170,440v30"/></g></g></svg>